HIERARCHY
ROOT Hips
{
  OFFSET -1.56614 0.00 -1.85809
  CHANNELS 6 Xposition Yposition Zposition Zrotation Xrotation Yrotation
  JOINT LHipJoint
  {
    OFFSET 0 0 0
    CHANNELS 3 Zrotation Xrotation Yrotation
    JOINT LeftUpLeg
    {
      OFFSET 1.8 -1.4 0.085
      CHANNELS 3 Zrotation Xrotation Yrotation
      JOINT LeftLeg
      {
        OFFSET 2.215 -6 0
        CHANNELS 3 Zrotation Xrotation Yrotation
        JOINT LeftFoot
        {
          OFFSET 2.5 -6.9 0
          CHANNELS 3 Zrotation Xrotation Yrotation
          JOINT LeftToeBase
          {
            OFFSET 0.2 -0.5 1.95
            CHANNELS 3 Zrotation Xrotation Yrotation
            End Site
            {
              OFFSET 0 0 1
            }
          }
        }
      }
    }
  }
  JOINT RHipJoint
  {
    OFFSET 0 0 0
    CHANNELS 3 Zrotation Xrotation Yrotation
    JOINT RightUpLeg
    {
      OFFSET -1.8 -1.4 0.085
      CHANNELS 3 Zrotation Xrotation Yrotation
      JOINT RightLeg
      {
        OFFSET -2.215 -6 0
        CHANNELS 3 Zrotation Xrotation Yrotation
        JOINT RightFoot
        {
          OFFSET -2.5 -6.9 0
          CHANNELS 3 Zrotation Xrotation Yrotation
          JOINT RightToeBase
          {
            OFFSET -0.2 -0.5 1.95
            CHANNELS 3 Zrotation Xrotation Yrotation
            End Site
            {
              OFFSET 0 0 1
            }
          }
        }
      }
    }
  }
  JOINT LowerBack
  {
    OFFSET 0 0 0
    CHANNELS 3 Zrotation Xrotation Yrotation
    JOINT Spine
    {
      OFFSET -0.087 1.94 -0.2889
      CHANNELS 3 Zrotation Xrotation Yrotation
      JOINT Spine1
      {
        OFFSET 0 1.95 0.06
        CHANNELS 3 Zrotation Xrotation Yrotation
        JOINT Neck
        {
          OFFSET 0 0 0
          CHANNELS 3 Zrotation Xrotation Yrotation
          JOINT Neck1
          {
            OFFSET 0 1.6 0.34
            CHANNELS 3 Zrotation Xrotation Yrotation
            JOINT Head
            {
              OFFSET 0 1.667 -0.24
              CHANNELS 3 Zrotation Xrotation Yrotation
              End Site
              {
                OFFSET 0 1.686 -0.12
              }
            }
          }
        }
        JOINT LeftShoulder
        {
          OFFSET 0 0 0
          CHANNELS 3 Zrotation Xrotation Yrotation
          JOINT LeftArm
          {
            OFFSET 2.7 1.55 -0.73
            CHANNELS 3 Zrotation Xrotation Yrotation
            JOINT LeftForeArm
            {
              OFFSET 5.45 0 0
              CHANNELS 3 Zrotation Xrotation Yrotation
              JOINT LeftHand
              {
                OFFSET 3.45 0 0
                CHANNELS 3 Zrotation Xrotation Yrotation
                JOINT LeftFingerBase
                {
                  OFFSET 0 0 0
                  CHANNELS 3 Zrotation Xrotation Yrotation
                  JOINT LeftHandIndex1
                  {
                    OFFSET 0.75 0 0
                    CHANNELS 3 Zrotation Xrotation Yrotation
                    End Site
                    {
                      OFFSET 0.6 0 0
                    }
                  }
                }
                JOINT LThumb
                {
                  OFFSET 0 0 0
                  CHANNELS 3 Zrotation Xrotation Yrotation
                  End Site
                  {
                    OFFSET 0.59 0 0.59
                  }
                }
              }
            }
          }
        }
        JOINT RightShoulder
        {
          OFFSET 0 0 0
          CHANNELS 3 Zrotation Xrotation Yrotation
          JOINT RightArm
          {
            OFFSET -2.7 1.55 -0.73
            CHANNELS 3 Zrotation Xrotation Yrotation
            JOINT RightForeArm
            {
              OFFSET -5.45 0 0
              CHANNELS 3 Zrotation Xrotation Yrotation
              JOINT RightHand
              {
                OFFSET -3.45 0 0
                CHANNELS 3 Zrotation Xrotation Yrotation
                JOINT RightFingerBase
                {
                  OFFSET 0 0 0
                  CHANNELS 3 Zrotation Xrotation Yrotation
                  JOINT RightHandIndex1
                  {
                    OFFSET -0.75 0 0
                    CHANNELS 3 Zrotation Xrotation Yrotation
                    End Site
                    {
                      OFFSET -0.6 0 0
                    }
                  }
                }
                JOINT RThumb
                {
                  OFFSET 0 0 0
                  CHANNELS 3 Zrotation Xrotation Yrotation
                  End Site
                  {
                    OFFSET -0.59 0 0.59
                  }
                }
              }
            }
          }
        }
      }
    }
  }
}
MOTION
Frames:	7
Frame Time:	0.00833333
-0.386786 18.7351 -1.24643 -0.00258851 -0.00766299 -0.00373514 1.99055e-021 0 -0 -18.5759 -5.15433 13.4577 4.26715 2.28898 3.41266 -2.40141 2.76544 -17.068 2.04198e-015 0 7.76503e-019 1.99055e-021 0 -0 19.8213 1.00007 -1.31016 -0.622262 1.03183 -0.46736 1.0447 -2.01562 1.80185 1.64599e-015 0 1.55301e-018 1.99055e-021 0 -0 0.00054446 0.00695104 0.000158914 0.00259851 0.00144285 -0.000347539 0.0114983 -16.0064 -0.00558474 0.0144128 20.9936 -0.00937655 -0.0776654 11.0301 0.00391276 0.326675 0.00423584 3.47177 -24.328 -43.662 -27.9459 -1.11851 48.7979 -0.000790075 2.05943 -1.60027 -0.494252 8.76206e-007 -7.94516e-008 -1.2548e-008 6.70898e-016 0 -0 7.45443e-017 9.93923e-017 -3.18055e-015 -0.23662 0.0443765 -2.89951 19.1602 -26.6071 24.9369 16.9862 -0.731329 14.5312 -7.7645 -0.919836 -11.1462 1.57908e-006 -3.20281e-007 -4.76729e-007 -3.18055e-015 -6.36111e-015 6.36111e-015 -1.59028e-015 6.36111e-015 -3.18055e-015 
-0.386988 18.7355 -1.2455 -0.0140357 -0.0417727 -0.0196814 -6.00576e-019 0 6.21202e-018 -18.5518 -5.13824 13.4886 4.25885 2.31425 3.44835 -2.37041 2.76709 -17.1326 6.53203e-015 6.21202e-018 3.10601e-018 -6.00576e-019 0 6.21202e-018 19.8174 1.10819 -1.39673 -0.604786 0.910553 -0.456081 1.10042 -2.0077 1.87166 1.07696e-015 1.2424e-017 -1.55301e-018 -6.00576e-019 0 6.21202e-018 0.00494378 0.0361622 0.00133848 0.01284 0.00799914 -0.00122839 0.0667648 -16.0372 -0.0323972 0.0836624 20.9628 -0.054401 -0.446045 11.1766 0.0221524 0.326675 0.00423584 3.47177 -24.3185 -43.6557 -27.926 -1.1231 48.8091 -0.000790252 2.06559 -1.60336 -0.479053 8.76206e-007 -7.94516e-008 -1.2548e-008 1.26725e-015 -1.98785e-016 3.18055e-015 -9.93923e-017 -9.93923e-017 3.18055e-015 -0.23662 0.0443765 -2.89951 19.1548 -26.6065 24.9427 17.001 -0.762564 14.5309 -7.75326 -0.919898 -11.1268 1.57908e-006 -3.20281e-007 -4.76729e-007 3.18055e-015 3.18055e-015 6.36111e-015 -1.59028e-015 0 -0 
-0.387186 18.7359 -1.24456 -0.0256755 -0.0764357 -0.0357887 -5.59325e-018 -1.2424e-017 2.48481e-017 -18.527 -5.12222 13.5199 4.24971 2.34108 3.4838 -2.33844 2.76804 -17.1974 5.07489e-015 6.21202e-018 -0 -5.59325e-018 -1.2424e-017 2.48481e-017 19.8136 1.21853 -1.48526 -0.586987 0.786324 -0.445227 1.15736 -1.99935 1.94364 -9.66157e-016 2.48481e-017 -1.2424e-017 -5.59325e-018 -1.2424e-017 2.48481e-017 0.00969734 0.0655984 0.00260507 0.0230573 0.014681 -0.00202775 0.123486 -16.0687 -0.0599334 0.154718 20.9312 -0.100611 -0.82375 11.3272 0.0408241 0.326675 0.00423584 3.47177 -24.3091 -43.6491 -27.9061 -1.12759 48.8216 -0.000790448 2.0721 -1.60654 -0.463764 8.76206e-007 -7.94516e-008 -1.2548e-008 6.21202e-016 1.98785e-016 3.18055e-015 -9.93923e-017 3.97569e-016 -3.18055e-015 -0.23662 0.0443765 -2.89951 19.1491 -26.606 24.9484 17.0159 -0.793457 14.5305 -7.74193 -0.91996 -11.107 1.57908e-006 -3.20281e-007 -4.76729e-007 -1.59028e-015 0 3.18055e-015 -1.59028e-015 0 -0 
-0.387439 18.7362 -1.24387 -0.0354229 -0.105013 -0.0501259 1.45109e-017 0 -0 -18.5104 -5.10554 13.5472 4.24945 2.35075 3.52183 -2.31706 2.77669 -17.2599 5.50833e-015 0 1.2424e-017 1.45109e-017 0 -0 19.8116 1.30435 -1.55235 -0.572169 0.694562 -0.429731 1.20064 -1.99573 1.9917 9.67959e-017 0 -6.21202e-018 1.45109e-017 0 -0 0.0105402 0.0925584 0.00291439 0.0335437 0.0199815 -0.00372349 0.163849 -16.0914 -0.0796065 0.205296 20.9085 -0.133565 -1.09999 11.4323 0.0549634 0.326675 0.00423584 3.47177 -24.2972 -43.6449 -27.8866 -1.13322 48.8208 -0.000790437 2.07482 -1.60871 -0.449465 8.76206e-007 -7.94516e-008 -1.2548e-008 7.70291e-016 9.93923e-017 6.36111e-015 2.23633e-016 -9.93923e-017 3.18055e-015 -0.23662 0.0443765 -2.89951 19.146 -26.6056 24.9555 17.0296 -0.828105 14.5319 -7.7316 -0.920007 -11.0922 1.57908e-006 -3.20281e-007 -4.76729e-007 -3.18055e-015 0 3.18055e-015 -6.36111e-015 3.18055e-015 3.18055e-015 
-0.387812 18.7364 -1.24375 -0.0412161 -0.121049 -0.0607534 -1.0774e-017 4.96962e-017 -0 -18.5117 -5.08687 13.5667 4.26879 2.32268 3.56679 -2.31821 2.80283 -17.319 3.96426e-015 0 -1.2424e-017 -1.0774e-017 4.96962e-017 -0 19.8126 1.339 -1.57437 -0.563621 0.671064 -0.403934 1.21526 -2.00228 1.98884 -1.18468e-015 2.48481e-017 -6.21202e-018 -1.0774e-017 4.96962e-017 -0 0.00316128 0.11488 0.00118672 0.0446623 0.0221155 -0.00734148 0.169713 -16.0953 -0.0826588 0.212716 20.9045 -0.138559 -1.1621 11.4413 0.0595045 0.326675 0.00423584 3.47177 -24.2798 -43.6457 -27.8677 -1.14124 48.7924 -0.000789988 2.06958 -1.60875 -0.437344 8.76206e-007 -7.94516e-008 -1.2548e-008 8.94531e-016 9.93923e-017 -3.18055e-015 2.48481e-017 -9.93923e-017 -0 -0.23662 0.0443765 -2.89976 19.1485 -26.6056 24.9655 17.0411 -0.871202 14.5369 -7.7234 -0.920361 -11.0877 1.57908e-006 -3.20281e-007 -4.76729e-007 7.95139e-015 0 3.18055e-015 -1.59028e-015 6.36111e-015 -6.36111e-015 
-0.38841 18.7363 -1.24452 -0.0426208 -0.124409 -0.0666831 -9.36656e-018 0 -2.48481e-017 -18.5427 -5.05627 13.5812 4.32675 2.21993 3.64318 -2.35377 2.87157 -17.4004 1.57738e-015 2.48481e-017 -0 -9.36656e-018 0 -2.48481e-017 19.818 1.31153 -1.53815 -0.56239 0.737303 -0.356485 1.19274 -2.02554 1.90966 1.54215e-015 -2.48481e-017 -1.2424e-017 -9.36656e-018 0 -2.48481e-017 -0.0150675 0.139624 -0.00358463 0.0576111 0.0161483 -0.0140524 0.127781 -16.0735 -0.062753 0.160377 20.9264 -0.104894 -0.932963 11.3191 0.0509103 0.326675 0.00423584 3.47177 -24.2537 -43.6525 -27.8459 -1.1519 48.7274 -0.000788967 2.05416 -1.60585 -0.429575 8.76206e-007 -7.94516e-008 -1.2548e-008 8.94531e-016 -5.96354e-016 -0 -4.96962e-017 -9.93923e-017 3.18055e-015 -0.23662 0.0443765 -2.90037 19.1586 -26.6054 24.9793 17.0522 -0.933763 14.5481 -7.71697 -0.921618 -11.0933 1.57908e-006 -3.20281e-007 -4.76729e-007 4.77083e-015 0 9.54166e-015 3.18055e-015 3.18055e-015 6.36111e-015 
-0.389106 18.7361 -1.24573 -0.0411144 -0.118681 -0.0698376 -1.40741e-017 0 -0 -18.5876 -5.02331 13.5903 4.40103 2.08649 3.72684 -2.40652 2.95521 -17.4818 -8.81573e-017 -6.21202e-018 -0 -1.40741e-017 0 -0 19.8259 1.24602 -1.46811 -0.566048 0.854913 -0.300536 1.14858 -2.05675 1.79131 -4.15065e-016 2.48481e-017 6.21202e-018 -1.40741e-017 0 -0 -0.0394824 0.161661 -0.00992253 0.0711248 0.0074362 -0.0222619 0.0596308 -16.0375 -0.0302466 0.075226 20.9625 -0.0499924 -0.541863 11.1242 0.0350609 0.326675 0.00423584 3.47177 -24.2234 -43.6629 -27.8242 -1.16431 48.6416 -0.000787624 2.03277 -1.60134 -0.423583 8.76206e-007 -7.94516e-008 -1.2548e-008 1.2424e-015 -3.97569e-016 -0 -1.19271e-015 -5.96354e-016 6.36111e-015 -0.236619 0.0443765 -2.90092 19.1729 -26.6055 24.9953 17.0618 -1.00344 14.5621 -7.71197 -0.922838 -11.1063 1.57908e-006 -3.20281e-007 -4.76729e-007 3.18055e-015 0 3.18055e-015 1.59028e-015 3.18055e-015 -0 
